# xmcd CD database file
#
# Track frame offsets:
#	150
#	42075
#	118960
#	214550
#
# Disc length: 3630 seconds
#
# Revision: 0
# Processed by: cddbd v1.5.1PL0 Copyright (c) Steve Scherf et al.
# Submitted via: CDex 1.51
#
DISCID=320e2c04
DTITLE=The Gil Evans Orchestra featuring John Mc Laughlin - We Remember Jimi [CD1]
DYEAR=1986
DGENRE=Jazz
TTITLE0=Up From The Sky(Jimi)
TTITLE1=Little Wing(Jimi)
TTITLE2=There Comes A Time(Tony Williams)
TTITLE3=Stone Free(Jimi)
EXTD=YEAR: 1986
EXTT0=
EXTT1=
EXTT2=
EXTT3=
PLAYORDER=
